# xmcd CD database file
#
# Track frame offsets:
#	150
#	24381
#	44640
#	46469
#	70104
#	115029
#	137828
#	140893
#	165605
#	193670
#	214877
#
# Disc length: 3248 seconds
#
# Revision: 1
# Processed by: cddbd v1.5.2PL0 Copyright (c) Steve Scherf et al.
# Submitted via: CDex 1.70beta2
#
DISCID=a80cae0b
DTITLE=Abbey Lincoln - Sophisticated Abbey - live at the Keystone Korner
DYEAR=1980
DGENRE=Jazz
TTITLE0=Painted Lady
TTITLE1=Long as You're Living
TTITLE2=Spoken Introduction
TTITLE3=Somos Novios (It's Impossible)
TTITLE4=Medley: Sophisticated Lady - There Are Such Things - Man of Music (con Alma)
TTITLE5=Whistling Away the dark
TTITLE6=Spoken Introduction
TTITLE7=People in Me
TTITLE8=Medley: The Nearness of You - For All We Know
TTITLE9=Golden Lady
TTITLE10=God Bless the Child
EXTD=YEAR: 1980
EXTT0=
EXTT1=
EXTT2=
EXTT3=
EXTT4=
EXTT5=
EXTT6=
EXTT7=
EXTT8=
EXTT9=
EXTT10=
PLAYORDER=
